<svg width="24" height="24" viewBox="0 0 24 24" fill="none" xmlns="http://www.w3.org/2000/svg">
<path d="M9.5 2H3.875C2.84125 2 2 2.84125 2 3.875V9.5C2 10.5337 2.84125 11.375 3.875 11.375H9.5C10.5337 11.375 11.375 10.5337 11.375 9.5V3.875C11.375 2.84125 10.5337 2 9.5 2ZM10.125 9.5C10.125 9.84438 9.845 10.125 9.5 10.125H3.875C3.53 10.125 3.25 9.84438 3.25 9.5V3.875C3.25 3.53062 3.53 3.25 3.875 3.25H9.5C9.845 3.25 10.125 3.53062 10.125 3.875V9.5ZM20.125 2H14.5C13.4663 2 12.625 2.84125 12.625 3.875V9.5C12.625 10.5337 13.4663 11.375 14.5 11.375H20.125C21.1588 11.375 22 10.5337 22 9.5V3.875C22 2.84125 21.1588 2 20.125 2ZM20.75 9.5C20.75 9.84438 20.47 10.125 20.125 10.125H14.5C14.155 10.125 13.875 9.84438 13.875 9.5V3.875C13.875 3.53062 14.155 3.25 14.5 3.25H20.125C20.47 3.25 20.75 3.53062 20.75 3.875V9.5ZM20.125 12.625H14.5C13.4663 12.625 12.625 13.4663 12.625 14.5V20.125C12.625 21.1588 13.4663 22 14.5 22H20.125C21.1588 22 22 21.1588 22 20.125V14.5C22 13.4663 21.1588 12.625 20.125 12.625ZM20.75 20.125C20.75 20.4694 20.47 20.75 20.125 20.75H14.5C14.155 20.75 13.875 20.4694 13.875 20.125V14.5C13.875 14.1556 14.155 13.875 14.5 13.875H20.125C20.47 13.875 20.75 14.1556 20.75 14.5V20.125ZM9.5 12.625H3.875C2.84125 12.625 2 13.4663 2 14.5V20.125C2 21.1588 2.84125 22 3.875 22H9.5C10.5337 22 11.375 21.1588 11.375 20.125V14.5C11.375 13.4663 10.5337 12.625 9.5 12.625ZM10.125 20.125C10.125 20.4694 9.845 20.75 9.5 20.75H3.875C3.53 20.75 3.25 20.4694 3.25 20.125V14.5C3.25 14.1556 3.53 13.875 3.875 13.875H9.5C9.845 13.875 10.125 14.1556 10.125 14.5V20.125Z" fill="#242424"/>
</svg>
