<svg width="24" height="24" viewBox="0 0 24 24" fill="none" xmlns="http://www.w3.org/2000/svg">
<path d="M10.5598 16.92L10.9598 16.3867C11.4798 15.6934 12.5198 15.6934 13.0398 16.3867L13.4398 16.92C14.0825 17.777 13.471 19 12.3998 19H11.5998C10.5285 19 9.91703 17.777 10.5598 16.92Z" fill="#242424"/>
<path fill-rule="evenodd" clip-rule="evenodd" d="M3.83237 8.53396L9.50096 3.99908C10.9618 2.83038 13.0376 2.83038 14.4985 3.99908L20.1671 8.53396C21.2987 9.4392 21.8521 10.8856 21.6139 12.315L20.5568 18.6577C20.2353 20.5864 18.5666 22.0001 16.6112 22.0001H7.38825C5.43289 22.0001 3.76413 20.5864 3.44267 18.6577L2.38557 12.315C2.14734 10.8856 2.70081 9.4392 3.83237 8.53396ZM4.76941 9.70526L10.438 5.17039C11.351 4.43995 12.6484 4.43995 13.5615 5.17039L19.2301 9.70526C19.9373 10.271 20.2832 11.1751 20.1343 12.0684L19.0772 18.4111C18.8763 19.6165 17.8333 20.5001 16.6112 20.5001H7.38825C6.16615 20.5001 5.12318 19.6165 4.92226 18.4111L3.86516 12.0684C3.71627 11.1751 4.06219 10.271 4.76941 9.70526Z" fill="#242424"/>
</svg>
