<svg width="12" height="12" viewBox="0 0 12 12" fill="none" xmlns="http://www.w3.org/2000/svg">
<path d="M10.3536 4.35355C10.5488 4.15829 10.5488 3.84171 10.3536 3.64645C10.1583 3.45118 9.84171 3.45118 9.64645 3.64645L10.3536 4.35355ZM6 8L5.64645 8.35355C5.84171 8.54882 6.15829 8.54882 6.35355 8.35355L6 8ZM2.35355 3.64645C2.15829 3.45118 1.84171 3.45118 1.64645 3.64645C1.45118 3.84171 1.45118 4.15829 1.64645 4.35355L2.35355 3.64645ZM9.64645 3.64645L5.64645 7.64645L6.35355 8.35355L10.3536 4.35355L9.64645 3.64645ZM6.35355 7.64645L2.35355 3.64645L1.64645 4.35355L5.64645 8.35355L6.35355 7.64645Z" fill="#5D5D5D"/>
</svg>
