<svg width="28" height="28" viewBox="0 0 28 28" fill="none" xmlns="http://www.w3.org/2000/svg">
<path fill-rule="evenodd" clip-rule="evenodd" d="M6.12503 3.5H9.73003C10.4282 3.49999 11.0977 3.77816 11.5903 4.27296C12.0829 4.76777 12.3581 5.43845 12.355 6.13667V9.73C12.355 11.1797 11.1798 12.355 9.73003 12.355H6.12503C4.67528 12.355 3.50003 11.1797 3.50003 9.73V6.13667C3.49692 5.43845 3.77211 4.76777 4.26473 4.27296C4.75735 3.77816 5.42681 3.49999 6.12503 3.5ZM9.73003 10.5933C10.2106 10.587 10.5987 10.199 10.605 9.71833V6.13667C10.605 5.65342 10.2133 5.26167 9.73003 5.26167H6.12503C5.64178 5.26167 5.25003 5.65342 5.25003 6.13667V9.71833C5.25631 10.199 5.6444 10.587 6.12503 10.5933H9.73003Z" fill="#44BD31"/>
<path fill-rule="evenodd" clip-rule="evenodd" d="M18.2701 3.5H21.8751C22.5733 3.49999 23.2427 3.77816 23.7353 4.27296C24.228 4.76777 24.5032 5.43845 24.5 6.13667V9.73C24.5 11.1797 23.3248 12.355 21.8751 12.355H18.2701C16.8203 12.355 15.6451 11.1797 15.6451 9.73V6.125C15.6451 4.67525 16.8203 3.5 18.2701 3.5ZM21.8751 10.5933C22.3557 10.587 22.7438 10.199 22.75 9.71833V6.13667C22.75 5.65342 22.3583 5.26167 21.8751 5.26167H18.2701C17.7868 5.26167 17.3951 5.65342 17.3951 6.13667V9.71833C17.4013 10.199 17.7894 10.587 18.2701 10.5933H21.8751Z" fill="#44BD31"/>
<path fill-rule="evenodd" clip-rule="evenodd" d="M6.12503 15.645H9.73003C11.1798 15.645 12.355 16.8203 12.355 18.27V21.875C12.355 23.3247 11.1798 24.5 9.73003 24.5H6.12503C5.42681 24.5 4.75735 24.2218 4.26473 23.727C3.77211 23.2322 3.49692 22.5615 3.50003 21.8633V18.27C3.50003 16.8203 4.67528 15.645 6.12503 15.645ZM9.73003 22.7383C10.2133 22.7383 10.605 22.3466 10.605 21.8633V18.27C10.5987 17.7894 10.2106 17.4013 9.73003 17.395H6.12503C5.6444 17.4013 5.25631 17.7894 5.25003 18.27V21.8633C5.25003 22.3466 5.64178 22.7383 6.12503 22.7383H9.73003Z" fill="#44BD31"/>
<path fill-rule="evenodd" clip-rule="evenodd" d="M18.27 15.645H21.875C23.3248 15.645 24.5 16.8203 24.5 18.27V21.8633C24.5031 22.5615 24.2279 23.2322 23.7353 23.727C23.2427 24.2218 22.5732 24.5 21.875 24.5H18.27C17.5718 24.5 16.9024 24.2218 16.4097 23.727C15.9171 23.2322 15.6419 22.5615 15.645 21.8633V18.27C15.645 16.8203 16.8203 15.645 18.27 15.645ZM21.875 22.7383C22.3583 22.7383 22.75 22.3466 22.75 21.8633V18.27C22.7437 17.7894 22.3556 17.4013 21.875 17.395H18.27C17.7894 17.4013 17.4013 17.7894 17.395 18.27V21.8633C17.395 22.3466 17.7868 22.7383 18.27 22.7383H21.875Z" fill="#44BD31"/>
</svg>
