<svg width="28" height="28" viewBox="0 0 28 28" fill="none" xmlns="http://www.w3.org/2000/svg">
<path fill-rule="evenodd" clip-rule="evenodd" d="M6.125 3.5H21.875C23.3247 3.5 24.5 4.67525 24.5 6.125V10.2083C24.5 11.6581 23.3247 12.8333 21.875 12.8333H6.125C4.67525 12.8333 3.5 11.6581 3.5 10.2083V6.125C3.5 4.67525 4.67525 3.5 6.125 3.5ZM21.875 11.0833C22.3556 11.077 22.7437 10.689 22.75 10.2083V6.125C22.7437 5.64438 22.3556 5.25628 21.875 5.25H6.125C5.64438 5.25628 5.25628 5.64438 5.25 6.125V10.2083C5.25628 10.689 5.64438 11.077 6.125 11.0833H21.875Z" fill="#D1D1D1"/>
<path fill-rule="evenodd" clip-rule="evenodd" d="M6.125 15.1667H21.875C23.3247 15.1667 24.5 16.3419 24.5 17.7917V21.875C24.5 23.3247 23.3247 24.5 21.875 24.5H6.125C4.67525 24.5 3.5 23.3247 3.5 21.875V17.7917C3.5 16.3419 4.67525 15.1667 6.125 15.1667ZM21.875 22.75C22.3556 22.7437 22.7437 22.3556 22.75 21.875V17.7917C22.7437 17.311 22.3556 16.9229 21.875 16.9167H6.125C5.64438 16.9229 5.25628 17.311 5.25 17.7917V21.875C5.25628 22.3556 5.64438 22.7437 6.125 22.75H21.875Z" fill="#D1D1D1"/>
</svg>
