<svg width="24" height="24" viewBox="0 0 24 24" fill="none" xmlns="http://www.w3.org/2000/svg">
<g clip-path="url(#clip0_146_1425)">
<path d="M23.8996 14.6513L19.8561 7.91168L23.4849 6.90368C23.8591 6.79975 24.0781 6.41219 23.9742 6.03803C23.8703 5.66388 23.4826 5.44478 23.1086 5.54875L18.5977 6.80172L18.5967 6.802L12.7032 8.43907V0.703613C12.7032 0.315301 12.3883 0.000488281 12 0.000488281C11.6117 0.000488281 11.2969 0.315301 11.2969 0.703613V8.82968L5.04176 10.5671L5.04078 10.5674L0.515138 11.8245C0.140935 11.9284 -0.0780654 12.316 0.0258096 12.6901C0.112294 13.0013 0.394903 13.2052 0.702872 13.2052C0.766612 13.2052 0.830052 13.1965 0.89145 13.1794L3.71267 12.3957L0.100481 18.4168C0.0349127 18.5261 0.000272012 18.6511 0.000262728 18.7785C0.000262728 21.6577 2.34275 24.0001 5.222 24.0001C8.10134 24.0001 10.4438 21.6577 10.4438 18.7785C10.4438 18.6511 10.4091 18.5261 10.3436 18.4168L6.30003 11.6771L17.2686 8.63036L13.6565 14.6513C13.5909 14.7606 13.5562 14.8856 13.5562 15.0131C13.5562 17.8923 15.8987 20.2347 18.778 20.2347C20.1727 20.2347 21.484 19.6915 22.4704 18.7053C23.4567 17.719 23.9998 16.4077 23.9997 15.013C23.9998 14.8856 23.9652 14.7605 23.8996 14.6513ZM5.222 22.5939C3.35839 22.5939 1.80326 21.2506 1.47218 19.4816H8.97181C8.64078 21.2506 7.08565 22.5939 5.222 22.5939ZM8.49893 18.0753H1.94515L5.222 12.6135L8.49893 18.0753ZM18.778 8.84805L22.055 14.3099H15.5011L18.778 8.84805ZM18.7781 18.8285C16.9144 18.8285 15.3593 17.4851 15.0282 15.7162H22.5279C22.1968 17.4851 20.6417 18.8285 18.7781 18.8285Z" fill="#D1D1D1"/>
</g>
<defs>
<clipPath id="clip0_146_1425">
<rect width="24" height="24" fill="white"/>
</clipPath>
</defs>
</svg>
