<svg width="24" height="24" viewBox="0 0 24 24" fill="none" xmlns="http://www.w3.org/2000/svg">
<path d="M16.2857 7.71427V13.4286C16.2857 15.0065 17.5649 16.2857 19.1429 16.2857C20.7208 16.2857 22 15.0065 22 13.4286V12C22 9.8602 21.3139 7.77688 20.042 6.05611C18.7701 4.33535 16.9795 3.06795 14.9339 2.44013C12.8883 1.81231 10.6951 1.85717 8.6769 2.56817C6.6587 3.27918 4.92192 4.61885 3.72154 6.39022C2.52117 8.16159 1.92081 10.2712 2.00838 12.4092C2.09595 14.5472 2.86699 16.6008 4.2082 18.268C5.54942 19.9353 7.39029 21.1284 9.45987 21.672C11.5295 22.2155 13.7185 22.0809 15.7059 21.2879M16.2857 12C16.2857 14.3669 14.3669 16.2857 12 16.2857C9.63307 16.2857 7.71429 14.3669 7.71429 12C7.71429 9.63305 9.63307 7.71427 12 7.71427C14.3669 7.71427 16.2857 9.63305 16.2857 12Z" stroke="white" stroke-width="2" stroke-linecap="round" stroke-linejoin="round"/>
</svg>
