<svg width="24" height="24" viewBox="0 0 24 24" fill="none" xmlns="http://www.w3.org/2000/svg">
<path d="M0.630534 11.1169C0.685649 11.0891 0.74079 11.0628 0.794528 11.0378C1.72874 10.6021 2.67535 10.1942 3.62058 9.78627C3.67156 9.78627 3.75697 9.72661 3.80519 9.70718C3.87822 9.67527 3.95126 9.64475 4.02429 9.61283C4.16484 9.55178 4.30539 9.49212 4.44455 9.43107C4.72564 9.31036 5.00534 9.18964 5.28642 9.06893L6.96882 8.34327C8.09042 7.86042 9.21343 7.37619 10.335 6.89334C11.4566 6.41049 12.5796 5.92625 13.7012 5.4434C14.8228 4.96056 15.9458 4.47633 17.0674 3.99348C18.189 3.51063 19.312 3.02639 20.4336 2.54354C20.683 2.43532 20.953 2.27436 21.2203 2.22719C21.4449 2.18695 21.664 2.10926 21.89 2.06624C22.3185 1.98438 22.7911 1.95108 23.2017 2.13007C23.3437 2.19251 23.4746 2.27992 23.5834 2.38953C24.1043 2.90846 24.0312 3.76037 23.921 4.49019C23.1535 9.57675 22.386 14.6647 21.6172 19.7513C21.5124 20.4492 21.3691 21.2151 20.8221 21.6563C20.3591 22.0295 19.7005 22.0712 19.1287 21.913C18.5569 21.7534 18.0526 21.419 17.5579 21.0902C15.5062 19.7221 13.4532 18.3541 11.4015 16.986C10.9137 16.6613 10.3709 16.2367 10.3764 15.6471C10.3791 15.2919 10.5899 14.9755 10.8049 14.6938C12.5879 12.3518 15.1604 10.7423 17.0743 8.50839C17.3443 8.19342 17.5565 7.62455 17.1859 7.44279C16.9654 7.33456 16.7119 7.48164 16.5107 7.62177C13.9809 9.39083 11.4525 11.1613 8.92269 12.9303C8.09734 13.5075 7.23202 14.1014 6.23719 14.2429C5.34707 14.3706 4.45145 14.1208 3.59027 13.8655C2.86826 13.6518 2.1476 13.4326 1.42972 13.2064C1.04804 13.0871 0.653962 12.9581 0.359093 12.6875C0.0642253 12.417 -0.105232 11.9619 0.0725155 11.6011C0.184124 11.3749 0.400457 11.232 0.627809 11.1155L0.630534 11.1169Z" fill="white"/>
</svg>
