<svg width="24" height="24" viewBox="0 0 24 24" fill="none" xmlns="http://www.w3.org/2000/svg">
<path d="M13.177 18.9457C13.177 18.9457 13.6101 18.9 13.832 18.6737C14.0351 18.4664 14.028 18.0752 14.028 18.0752C14.028 18.0752 14.001 16.2485 14.8943 15.9788C15.7747 15.7136 16.9051 17.7453 18.1048 18.5266C19.011 19.1173 19.6989 18.988 19.6989 18.988L22.9046 18.9457C22.9046 18.9457 24.5809 18.8476 23.7862 17.596C23.7204 17.4934 23.3225 16.6698 21.4033 14.978C19.3925 13.207 19.6625 13.4934 22.0829 10.4297C23.5573 8.56396 24.1465 7.42492 23.9622 6.93787C23.7873 6.47202 22.7027 6.59573 22.7027 6.59573L19.0943 6.61691C19.0943 6.61691 18.8267 6.58234 18.6283 6.69491C18.4346 6.80524 18.309 7.06271 18.309 7.06271C18.309 7.06271 17.7385 8.50599 16.9767 9.73421C15.3697 12.3243 14.7276 12.4614 14.4647 12.3009C13.8531 11.9253 14.0057 10.7941 14.0057 9.99055C14.0057 7.47952 14.4072 6.43302 13.2251 6.16216C12.833 6.0719 12.5443 6.01284 11.5406 6.00279C10.2529 5.99053 9.16363 6.00725 8.54617 6.29371C8.13534 6.48428 7.81839 6.91001 8.0121 6.93454C8.25039 6.96461 8.79036 7.07272 9.07676 7.44277C9.44654 7.92088 9.43359 8.99303 9.43359 8.99303C9.43359 8.99303 9.64606 11.9487 8.93708 12.3154C8.45112 12.5673 7.78435 12.0535 6.35112 9.70301C5.61745 8.49931 5.06341 7.16857 5.06341 7.16857C5.06341 7.16857 4.95657 6.92006 4.76523 6.7863C4.53399 6.62472 4.21119 6.57454 4.21119 6.57454L0.782393 6.59573C0.782393 6.59573 0.267084 6.60912 0.0781024 6.82196C-0.0897521 7.01032 0.0651935 7.40152 0.0651935 7.40152C0.0651935 7.40152 2.74977 13.3653 5.78999 16.3711C8.57788 19.1262 11.7425 18.9457 11.7425 18.9457H13.177Z" fill="white"/>
</svg>
