<svg width="25" height="24" viewBox="0 0 25 24" fill="none" xmlns="http://www.w3.org/2000/svg">
<path d="M16.2432 17.5695C11.3315 17.5695 7.33533 13.602 7.33398 8.72699C7.33533 7.49123 8.34916 6.48633 9.59156 6.48633C9.7193 6.48633 9.84568 6.497 9.96669 6.51836C10.2329 6.56239 10.4857 6.65181 10.7183 6.7866C10.7519 6.80661 10.7748 6.83865 10.7802 6.87601L11.2992 10.1229C11.3059 10.1603 11.2938 10.199 11.2683 10.227C10.9819 10.5419 10.6161 10.7688 10.2087 10.8822L10.0124 10.937L10.0864 11.1251C10.756 12.8173 12.1194 14.1692 13.8257 14.8364L14.0153 14.9112L14.0704 14.7163C14.1847 14.312 14.4133 13.949 14.7306 13.6647C14.7534 13.6434 14.7844 13.6327 14.8153 13.6327C14.822 13.6327 14.8287 13.6327 14.8368 13.634L18.1082 14.1491C18.1472 14.1558 18.1795 14.1772 18.1996 14.2105C18.3341 14.4414 18.4242 14.6936 18.4699 14.9579C18.4914 15.0753 18.5008 15.1994 18.5008 15.3289C18.5008 16.5633 17.4883 17.5682 16.2432 17.5695Z" fill="white"/>
<path d="M24.9529 10.9297C24.6881 7.95908 23.3166 5.20329 21.0913 3.17082C18.8525 1.12634 15.9482 0 12.9108 0C6.24429 0 0.820214 5.38345 0.820214 12C0.820214 14.2206 1.43737 16.3839 2.60582 18.2682L0 23.9933L8.3432 23.1112C9.79401 23.7011 11.3295 24 12.9094 24C13.3249 24 13.7511 23.9786 14.1787 23.9346C14.5552 23.8946 14.9357 23.8358 15.3095 23.7611C20.8923 22.6415 24.9677 17.7238 25 12.0641V12C25 11.6397 24.9839 11.2794 24.9516 10.931L24.9529 10.9297ZM8.66456 20.5983L4.04858 21.0867L5.42679 18.056L5.15114 17.6891C5.13097 17.6624 5.1108 17.6357 5.08795 17.605C3.89126 15.9649 3.25929 14.0271 3.25929 12.0013C3.25929 6.7193 7.58888 2.42216 12.9108 2.42216C17.8965 2.42216 22.1226 6.28292 22.53 11.2113C22.5515 11.4755 22.5636 11.7411 22.5636 12.0027C22.5636 12.0774 22.5623 12.1508 22.5609 12.2295C22.4587 16.6481 19.3487 20.4008 14.9976 21.3563C14.6655 21.4297 14.3253 21.4858 13.9864 21.5218C13.6342 21.5618 13.2725 21.5818 12.9135 21.5818C11.6348 21.5818 10.3924 21.3363 9.21853 20.8505C9.0881 20.7985 8.96036 20.7424 8.84069 20.6851L8.6659 20.601L8.66456 20.5983Z" fill="white"/>
</svg>
