<svg width="24" height="24" viewBox="0 0 24 24" fill="none" xmlns="http://www.w3.org/2000/svg">
<path fill-rule="evenodd" clip-rule="evenodd" d="M10 18H21H10Z" fill="white"/>
<path fill-rule="evenodd" clip-rule="evenodd" d="M3 18H6H3Z" fill="white"/>
<path fill-rule="evenodd" clip-rule="evenodd" d="M6 20L6 16L6 20Z" fill="white"/>
<path fill-rule="evenodd" clip-rule="evenodd" d="M20 12H21H20Z" fill="white"/>
<path fill-rule="evenodd" clip-rule="evenodd" d="M3 12H16H3Z" fill="white"/>
<path fill-rule="evenodd" clip-rule="evenodd" d="M16 14V10V14Z" fill="white"/>
<path fill-rule="evenodd" clip-rule="evenodd" d="M14 6H21H14Z" fill="white"/>
<path fill-rule="evenodd" clip-rule="evenodd" d="M3 6H10H3Z" fill="white"/>
<path fill-rule="evenodd" clip-rule="evenodd" d="M10 8L10 4L10 8Z" fill="white"/>
<path d="M10 18H21M3 18H6M6 20L6 16M20 12H21M3 12H16M16 14V10M14 6H21M3 6H10M10 8L10 4" stroke="#444444" stroke-width="1.5" stroke-linecap="round" stroke-linejoin="round"/>
</svg>
