<svg width="16" height="16" viewBox="0 0 16 16" fill="none" xmlns="http://www.w3.org/2000/svg">
<g clip-path="url(#clip0_27_2945)">
<path fill-rule="evenodd" clip-rule="evenodd" d="M7.98211 12.5604L3.63544 15.215C3.52707 15.2808 3.40159 15.313 3.27492 15.3074C3.14825 15.3018 3.02611 15.2587 2.92397 15.1835C2.82184 15.1084 2.74433 15.0046 2.70127 14.8854C2.6582 14.7661 2.65154 14.6368 2.68211 14.5137L3.94211 9.49503L0.287441 6.65103C0.185424 6.57211 0.109635 6.4642 0.0700107 6.34145C0.0303861 6.2187 0.0287749 6.08685 0.0653884 5.96317C0.102002 5.83949 0.175131 5.72976 0.27519 5.64836C0.375248 5.56697 0.497566 5.5177 0.626108 5.50703L5.40744 5.1137L7.40211 0.464366C7.45146 0.349052 7.53361 0.250781 7.63834 0.181765C7.74308 0.112749 7.86578 0.0760302 7.99121 0.0761723C8.11665 0.0763143 8.23927 0.113311 8.34385 0.182564C8.44843 0.251817 8.53035 0.350273 8.57944 0.465699L10.5568 5.1137L15.3701 5.50837C15.4984 5.51909 15.6205 5.56828 15.7205 5.6495C15.8204 5.73072 15.8935 5.84019 15.9302 5.96362C15.967 6.08704 15.9656 6.21868 15.9263 6.34132C15.887 6.46396 15.8117 6.5719 15.7101 6.65103L12.0408 9.49503L13.2981 14.5164C13.329 14.6395 13.3226 14.7691 13.2797 14.8886C13.2368 15.0081 13.1593 15.1121 13.0571 15.1874C12.9549 15.2628 12.8326 15.306 12.7057 15.3116C12.5789 15.3172 12.4533 15.285 12.3448 15.219L7.98211 12.559V12.5604Z" fill="#FFCC00"/>
</g>
<defs>
<clipPath id="clip0_27_2945">
<rect width="16" height="16" fill="white"/>
</clipPath>
</defs>
</svg>
